<svg width="40" height="41" viewBox="0 0 40 41" fill="none" xmlns="http://www.w3.org/2000/svg">
<path d="M25.7481 26.1586C26.742 25.1648 27.4189 23.8986 27.6931 22.5201C27.9673 21.1416 27.8266 19.7128 27.2888 18.4143C26.7509 17.1157 25.8401 16.0059 24.6715 15.225C23.5029 14.4441 22.1289 14.0273 20.7234 14.0273C19.3179 14.0273 17.944 14.4441 16.7754 15.225C15.6067 16.0059 14.6959 17.1157 14.1581 18.4143C13.6202 19.7128 13.4795 21.1416 13.7538 22.5201C14.028 23.8986 14.7049 25.1648 15.6987 26.1586" stroke="black" stroke-width="1.77656" stroke-linecap="round"/>
<path d="M29.0974 29.5114C30.1987 28.4128 31.0722 27.1074 31.6675 25.6702C32.2628 24.233 32.5683 22.6923 32.5664 21.1367C32.5664 14.5954 27.2639 9.29297 20.7226 9.29297C14.1814 9.29297 8.87892 14.5954 8.87892 21.1367C8.877 22.6923 9.18248 24.233 9.7778 25.6702C10.3731 27.1074 11.2466 28.4128 12.3479 29.5114" stroke="black" stroke-width="1.77656" stroke-linecap="round"/>
<path d="M20.7203 23.5031C22.0285 23.5031 23.0891 22.4426 23.0891 21.1344C23.0891 19.8261 22.0285 18.7656 20.7203 18.7656C19.4121 18.7656 18.3516 19.8261 18.3516 21.1344C18.3516 22.4426 19.4121 23.5031 20.7203 23.5031Z" stroke="black" stroke-width="1.77656"/>
<path d="M18.2204 27.4668C19.3574 26.4293 19.9259 25.9105 20.627 25.8774C20.691 25.8742 20.7549 25.8742 20.8189 25.8774C21.5212 25.9105 22.0885 26.4293 23.2255 27.4668C25.6973 29.7242 26.9326 30.8517 26.588 31.8253C26.558 31.9097 26.5208 31.9913 26.4766 32.0693C25.9674 32.9812 24.2192 32.9812 20.7229 32.9812C17.2267 32.9812 15.4785 32.9812 14.9693 32.0693C14.9256 31.9911 14.8884 31.9095 14.8579 31.8253C14.5121 30.8517 15.7474 29.7242 18.2204 27.4668Z" stroke="black" stroke-width="1.77656"/>
</svg>
