<svg width="40" height="40" viewBox="0 0 40 40" fill="none" xmlns="http://www.w3.org/2000/svg">
<path d="M12.9731 29.1762C12.3983 29.1762 11.9064 28.9717 11.4974 28.5627C11.0884 28.1537 10.8835 27.6614 10.8828 27.0859V12.4536C10.8828 11.8788 11.0877 11.3868 11.4974 10.9778C11.9071 10.5688 12.399 10.364 12.9731 10.3633H27.6054C28.1802 10.3633 28.6725 10.5681 29.0822 10.9778C29.4919 11.3875 29.6964 11.8795 29.6957 12.4536V27.0859C29.6957 27.6607 29.4912 28.153 29.0822 28.5627C28.6732 28.9724 28.1809 29.1769 27.6054 29.1762H12.9731ZM12.9731 24.9433V27.0859H27.6054V17.9407L21.3867 24.9955L17.1538 20.7626L12.9731 24.9433ZM12.9731 21.9646L17.1538 17.7839L21.2822 21.9123L27.6054 14.8052V12.4536H12.9731V21.9646ZM12.9731 17.9407V14.8052V21.9123V17.7839V24.9433V20.7626V24.9955V17.9407ZM12.9731 21.9646V12.4536V21.9123V17.7839V21.9646ZM12.9731 24.9433V20.7626V24.9955V17.9407V27.0859V24.9433Z" fill="black"/>
</svg>
