<svg width="40" height="40" viewBox="0 0 40 40" fill="none" xmlns="http://www.w3.org/2000/svg">
<path d="M25.8025 26.1713L25.3583 25.7272C25.2015 25.5704 25.0144 25.492 24.797 25.492C24.5797 25.492 24.3922 25.5704 24.2347 25.7272C24.0773 25.8839 23.9989 26.0668 23.9996 26.2759C24.0003 26.4849 24.0787 26.6678 24.2347 26.8246L25.2538 27.8436C25.4106 28.0004 25.5935 28.0788 25.8025 28.0788C26.0115 28.0788 26.1944 28.0004 26.3512 27.8436L28.8857 25.3613C29.0425 25.2046 29.1209 25.0171 29.1209 24.7991C29.1209 24.581 29.0425 24.3939 28.8857 24.2378C28.7289 24.0817 28.5415 24.0033 28.3234 24.0026C28.1053 24.0019 27.9182 24.0803 27.7622 24.2378L25.8025 26.1713ZM15.0635 16.6342H25.5151C25.8112 16.6342 26.0596 16.5339 26.2603 16.3332C26.4609 16.1326 26.5609 15.8845 26.5602 15.5891C26.5595 15.2937 26.4592 15.0456 26.2592 14.8449C26.0593 14.6443 25.8112 14.5439 25.5151 14.5439H15.0635C14.7673 14.5439 14.5193 14.6443 14.3193 14.8449C14.1193 15.0456 14.019 15.2937 14.0183 15.5891C14.0176 15.8845 14.1179 16.1329 14.3193 16.3343C14.5207 16.5357 14.7687 16.6356 15.0635 16.6342ZM26.5602 31.2665C25.1144 31.2665 23.8822 30.7568 22.8635 29.7374C21.8448 28.7181 21.3351 27.4858 21.3344 26.0407C21.3337 24.5956 21.8434 23.3633 22.8635 22.344C23.8836 21.3246 25.1158 20.8149 26.5602 20.8149C28.0046 20.8149 29.2372 21.3246 30.258 22.344C31.2788 23.3633 31.7881 24.5956 31.786 26.0407C31.7839 27.4858 31.2743 28.7184 30.257 29.7385C29.2397 30.7586 28.0074 31.2679 26.5602 31.2665ZM10.8828 12.4536C10.8828 11.8788 11.0877 11.3868 11.4974 10.9778C11.9071 10.5688 12.399 10.364 12.9731 10.3633H27.6054C28.1802 10.3633 28.6725 10.5681 29.0822 10.9778C29.4919 11.3875 29.6964 11.8795 29.6957 12.4536V18.0713C29.6957 18.3675 29.5954 18.6159 29.3947 18.8165C29.194 19.0172 28.946 19.1172 28.6506 19.1165C28.3551 19.1158 28.1071 19.0155 27.9064 18.8155C27.7057 18.6155 27.6054 18.3675 27.6054 18.0713V12.4536H12.9731V27.1381H19.3225C19.3573 27.3994 19.4096 27.6607 19.4793 27.922C19.5489 28.1833 19.6273 28.4359 19.7144 28.6797C19.8015 28.8713 19.7667 29.0239 19.6099 29.1375C19.4531 29.2511 19.3051 29.2378 19.1657 29.0978L19.0873 29.0194C18.9828 28.9149 18.8609 28.8626 18.7215 28.8626C18.5822 28.8626 18.4602 28.9149 18.3557 29.0194L17.5196 29.8555C17.4151 29.9601 17.2931 30.0123 17.1538 30.0123C17.0144 30.0123 16.8925 29.9601 16.788 29.8555L15.9518 29.0194C15.8473 28.9149 15.7254 28.8626 15.586 28.8626C15.4467 28.8626 15.3247 28.9149 15.2202 29.0194L14.3841 29.8555C14.2796 29.9601 14.1577 30.0123 14.0183 30.0123C13.8789 30.0123 13.757 29.9601 13.6525 29.8555L12.8164 29.0194C12.7118 28.9149 12.5899 28.8626 12.4506 28.8626C12.3112 28.8626 12.1893 28.9149 12.0847 29.0194L10.8828 30.2213V12.4536ZM15.0635 24.9955H18.5909C18.887 24.9955 19.1354 24.8952 19.3361 24.6945C19.5367 24.4939 19.6367 24.2458 19.636 23.9504C19.6353 23.6549 19.535 23.4069 19.335 23.2062C19.1351 23.0056 18.887 22.9052 18.5909 22.9052H15.0635C14.7673 22.9052 14.5193 23.0056 14.3193 23.2062C14.1193 23.4069 14.019 23.6549 14.0183 23.9504C14.0176 24.2458 14.1179 24.4942 14.3193 24.6956C14.5207 24.8969 14.7687 24.9969 15.0635 24.9955ZM15.0635 20.8149H21.9093C22.2054 20.8149 22.4538 20.7146 22.6545 20.5139C22.8551 20.3132 22.9551 20.0652 22.9544 19.7697C22.9537 19.4743 22.8534 19.2262 22.6534 19.0256C22.4534 18.8249 22.2054 18.7246 21.9093 18.7246H15.0635C14.7673 18.7246 14.5193 18.8249 14.3193 19.0256C14.1193 19.2262 14.019 19.4743 14.0183 19.7697C14.0176 20.0652 14.1179 20.3136 14.3193 20.5149C14.5207 20.7163 14.7687 20.8163 15.0635 20.8149Z" fill="black"/>
</svg>
