<svg width="40" height="41" viewBox="0 0 40 41" fill="none" xmlns="http://www.w3.org/2000/svg">
<path d="M25.7476 30.9226V28.5539M28.1164 26.1851H30.4851M15.1475 20.6103L13.4728 22.285C12.5843 23.1735 12.0852 24.3785 12.0852 25.635C12.0852 26.8915 12.5843 28.0965 13.4728 28.985C14.3613 29.8735 15.5663 30.3726 16.8228 30.3726C18.0793 30.3726 19.2843 29.8735 20.1728 28.985L21.8487 27.3103M13.9039 16.7101H11.5352M16.2726 11.9727V14.3414M20.1728 15.585L21.8475 13.9103C22.2856 13.4623 22.8083 13.1057 23.3851 12.8611C23.962 12.6166 24.5817 12.4888 25.2083 12.4854C25.8349 12.4819 26.4559 12.6028 27.0355 12.841C27.615 13.0793 28.1416 13.4301 28.5846 13.8732C29.0276 14.3163 29.3784 14.8429 29.6165 15.4225C29.8546 16.0021 29.9754 16.6231 29.9718 17.2497C29.9683 17.8763 29.8404 18.496 29.5957 19.0728C29.351 19.6497 28.9944 20.1722 28.5463 20.6103L26.8716 22.285" stroke="black" stroke-width="2.36875" stroke-linecap="round" stroke-linejoin="round"/>
</svg>
