<svg width="40" height="40" viewBox="0 0 40 40" fill="none" xmlns="http://www.w3.org/2000/svg">
<path d="M26.8865 17.8372C27.601 17.1226 27.601 15.974 27.601 13.6743C27.601 11.3746 27.601 10.226 26.8865 9.51142M26.8865 17.8372C26.1719 18.5517 25.0233 18.5517 22.7236 18.5517H17.8462C15.5465 18.5517 14.3978 18.5517 13.6833 17.8372M26.8865 9.51142C26.1719 8.79687 25.0233 8.79688 22.7236 8.79688H17.8462C15.5465 8.79688 14.3978 8.79687 13.6833 9.51142M13.6833 9.51142C12.9687 10.226 12.9688 11.3746 12.9688 13.6743C12.9688 15.974 12.9687 17.1226 13.6833 17.8372M21.5042 13.6743C21.5042 13.9977 21.3758 14.3078 21.1471 14.5365C20.9184 14.7652 20.6083 14.8936 20.2849 14.8936C19.9615 14.8936 19.6513 14.7652 19.4227 14.5365C19.194 14.3078 19.0655 13.9977 19.0655 13.6743C19.0655 13.3509 19.194 13.0408 19.4227 12.8121C19.6513 12.5834 19.9615 12.4549 20.2849 12.4549C20.6083 12.4549 20.9184 12.5834 21.1471 12.8121C21.3758 13.0408 21.5042 13.3509 21.5042 13.6743Z" stroke="black" stroke-width="1.56774"/>
<path d="M27.6016 12.4549C26.6314 12.4549 25.701 12.0695 25.015 11.3835C24.329 10.6975 23.9436 9.76705 23.9436 8.79688M27.6016 14.8936C26.6314 14.8936 25.701 15.2791 25.015 15.9651C24.329 16.6511 23.9436 17.5815 23.9436 18.5517M12.9694 12.4549C13.9395 12.4549 14.87 12.0695 15.556 11.3835C16.242 10.6975 16.6274 9.76705 16.6274 8.79688M12.9694 14.8936C13.9395 14.8936 14.87 15.2791 15.556 15.9651C16.242 16.6511 16.6274 17.5815 16.6274 18.5517M11.75 29.999H14.5057C15.7373 29.999 16.9847 30.1283 18.1833 30.3746C20.3234 30.8129 22.5251 30.8616 24.6825 30.5185C25.7409 30.3478 26.7798 30.0856 27.7211 29.632C28.5698 29.2211 29.6099 28.6443 30.3086 27.9968C31.0061 27.3506 31.7328 26.2934 32.2474 25.4667C32.6912 24.757 32.4766 23.8876 31.7767 23.3596C31.3832 23.0741 30.9094 22.9203 30.4232 22.9203C29.937 22.9203 29.4632 23.0741 29.0697 23.3596L26.8663 25.0241C26.0128 25.6703 25.08 26.2641 23.9692 26.4409C23.835 26.4621 23.6948 26.4812 23.5485 26.4983M23.5485 26.4983L23.4144 26.5129M23.5485 26.4983C23.7436 26.4454 23.9225 26.3448 24.0691 26.2056C24.2532 26.0468 24.4035 25.8528 24.5112 25.6349C24.6188 25.417 24.6817 25.1797 24.696 24.937C24.7104 24.6944 24.6759 24.4514 24.5946 24.2223C24.5133 23.9932 24.3869 23.7828 24.2228 23.6035C24.0639 23.4271 23.8788 23.2762 23.6741 23.156C20.2635 21.1209 14.9557 22.6707 11.75 24.9448M23.5485 26.4983C23.5044 26.5081 23.4595 26.513 23.4144 26.5129M23.4144 26.5129C22.679 26.5866 21.9381 26.5882 21.2024 26.5178" stroke="black" stroke-width="1.56774" stroke-linecap="round"/>
<path d="M11.7518 24.04C11.7518 23.0298 10.9329 22.2109 9.92278 22.2109C8.91264 22.2109 8.09375 23.0298 8.09375 24.04V30.1367C8.09375 31.1469 8.91264 31.9658 9.92278 31.9658C10.9329 31.9658 11.7518 31.1469 11.7518 30.1367V24.04Z" stroke="black" stroke-width="1.56774"/>
</svg>
