<svg width="25" height="25" viewBox="0 0 25 25" fill="none" xmlns="http://www.w3.org/2000/svg">
<rect x="0.38916" y="0.389282" width="24" height="24" rx="12" fill="#020202"/>
<path d="M9.90123 9.82515H11.4118C11.5675 9.82515 11.9397 10.19 12.0029 10.3433C12.1148 10.6279 12.0954 11.5741 11.9689 11.8588C11.8716 12.0752 11.4605 12.4134 11.2294 12.4134H9.90366V18.052C9.90366 18.2247 9.51689 18.6042 9.33931 18.6577C9.10092 18.7331 8.11088 18.7331 7.86763 18.6699C7.65113 18.6139 7.31544 18.2709 7.31544 18.052V12.4134C6.46649 12.4718 6.02377 12.2942 5.95565 11.399C5.87295 10.2946 6.07485 9.72542 7.31544 9.82515V8.86917C7.31544 7.6602 8.51711 6.28095 9.70419 6.08148C10.2418 5.99148 12.1756 5.90877 12.6159 6.09608C13.2338 6.35879 13.1754 7.24667 13.1097 7.82074C13.0757 8.12481 12.8349 8.4751 12.5211 8.52618C11.8935 8.62591 10.4242 8.29995 10.0277 8.80592C9.80879 9.08566 9.93771 9.48703 9.90609 9.82272L9.90123 9.82515Z" fill="#F4F4F4"/>
<path d="M15.3917 11.1345C16.0339 10.2831 17.3377 9.38794 18.3958 10.0715C19.3421 10.6845 19.0161 12.65 17.7026 12.6792C17.4618 12.684 17.3328 12.577 17.1431 12.5551C16.2747 12.4529 15.4817 13.297 15.3917 14.1217C15.253 15.3914 15.5182 16.8704 15.3649 18.1621C15.2409 18.3956 15.073 18.6437 14.7933 18.6997C14.5719 18.7435 13.5551 18.7483 13.341 18.6997C13.0929 18.6437 12.7937 18.2643 12.8035 18.004L12.8156 10.3755C12.8935 10.1323 13.11 9.99121 13.3435 9.91823C13.6427 9.82579 14.5476 9.84525 14.8541 9.91336C15.3527 10.0253 15.4573 10.7064 15.3917 11.1321V11.1345Z" fill="#FFBD20"/>
</svg>
