<svg width="25" height="25" viewBox="0 0 25 25" fill="none" xmlns="http://www.w3.org/2000/svg">
<path d="M12.5 21.3984C13.6819 21.3984 14.8522 21.1656 15.9442 20.7134C17.0361 20.2611 18.0282 19.5981 18.864 18.7624C19.6997 17.9267 20.3626 16.9345 20.8149 15.8426C21.2672 14.7507 21.5 13.5803 21.5 12.3984C21.5 11.2165 21.2672 10.0462 20.8149 8.95429C20.3626 7.86236 19.6997 6.8702 18.864 6.03448C18.0282 5.19875 17.0361 4.53581 15.9442 4.08352C14.8522 3.63123 13.6819 3.39844 12.5 3.39844M12.5 21.3984C11.3181 21.3984 10.1478 21.1656 9.05585 20.7134C7.96392 20.2611 6.97177 19.5981 6.13604 18.7624C5.30031 17.9267 4.63738 16.9345 4.18508 15.8426C3.73279 14.7507 3.5 13.5803 3.5 12.3984C3.5 11.2165 3.73279 10.0462 4.18508 8.95429C4.63738 7.86236 5.30031 6.8702 6.13604 6.03448C6.97177 5.19875 7.96392 4.53581 9.05585 4.08352C10.1478 3.63123 11.3181 3.39844 12.5 3.39844M12.5 21.3984C15.261 21.3984 16.441 16.2354 16.441 12.3984C16.441 8.56144 15.261 3.39844 12.5 3.39844M12.5 21.3984C9.739 21.3984 8.559 16.2354 8.559 12.3984C8.559 8.56144 9.739 3.39844 12.5 3.39844M4 9.39844H21M4 15.3984H21" stroke="black" stroke-width="1.5" stroke-linecap="round" stroke-linejoin="round"/>
</svg>
