<svg width="40" height="40" viewBox="0 0 40 40" fill="none" xmlns="http://www.w3.org/2000/svg">
<g clip-path="url(#clip0_691_2454)">
<path d="M32.2398 27.6797V32.8369H27.2188" stroke="black" stroke-width="1.69622" stroke-linecap="round" stroke-linejoin="round"/>
<path d="M32.2361 32.8368L26.6014 27.0492C26.281 26.7199 25.8798 26.4859 25.4403 26.3719C25.0009 26.2578 24.5396 26.2682 24.1054 26.4017L17.7309 28.1506C17.3055 28.2675 16.8576 28.2674 16.4323 28.1503C16.0069 28.0333 15.619 27.8033 15.3075 27.4836L8.80469 20.7987M10.6435 17.3525C10.347 15.8453 10.4495 14.2839 10.9405 12.8312C11.4315 11.3785 12.2929 10.0877 13.4349 9.09339C14.5769 8.09906 15.9578 7.43763 17.4334 7.17804C18.909 6.91846 20.4255 7.07024 21.8245 7.61755C23.2236 8.16487 24.4541 9.08768 25.3878 10.2898C26.3214 11.4918 26.924 12.9292 27.1327 14.4519C27.3414 15.9746 27.1485 17.527 26.5743 18.9471C26 20.3672 25.0653 21.603 23.8677 22.5258" stroke="black" stroke-width="1.69622" stroke-linecap="round" stroke-linejoin="round"/>
<path d="M17.2328 11.9219C18.0883 11.9219 18.9087 12.2709 19.5137 12.8923C20.1186 13.5136 20.4585 14.3564 20.4585 15.2351C20.4585 16.1138 20.1186 16.9565 19.5137 17.5779C18.9087 18.1992 18.0883 18.5483 17.2328 18.5483H15.2969L19.1675 22.5239M15.2969 11.9242H22.3932M17.2328 15.2374H22.3932" stroke="black" stroke-width="1.69622" stroke-linecap="round" stroke-linejoin="round"/>
</g>
<defs>
<clipPath id="clip0_691_2454">
<rect width="27.1395" height="27.1395" fill="white" transform="translate(6.95312 6.37109)"/>
</clipPath>
</defs>
</svg>
