<svg width="122" height="57" viewBox="0 0 122 57" fill="none" xmlns="http://www.w3.org/2000/svg">
<path d="M95.6931 16.9029C102.7 26.0607 94.8628 36.6737 84.1628 35.9461C82.9845 35.867 81.387 35.2107 80.3826 35.3451C78.5479 35.5903 78.113 38.0418 79.9793 38.3344C84.0916 38.9671 89.0501 37.5278 93.202 38.9434C101.545 41.7904 101.688 52.6564 93.3997 55.7881C90.3392 56.9427 81.0311 56.9981 77.9073 56.0412C71.8496 54.1906 68.8286 47.3578 73.8425 42.6287C72.8539 41.308 71.8021 40.4301 71.6439 38.6587C71.383 35.7089 72.6957 33.2098 75.2739 31.8259C73.0833 28.6942 71.9445 25.7523 72.7195 21.8772C74.3407 13.7475 84.2261 10.3943 91.2961 13.7C89.6037 9.5007 94.3171 6.23456 97.8916 8.80476C101.308 11.2643 99.6947 16.373 95.701 16.9029H95.6931ZM84.6215 19.1647C77.6068 19.908 77.8599 28.9552 85.1751 29.1292C93.55 29.3269 93.1071 18.2631 84.6215 19.1647ZM80.8097 45.6022C78.5084 46.0213 78.4925 49.0977 80.8097 49.5168C82.2648 49.7778 88.0379 49.7541 89.5642 49.5484C92.1977 49.1926 92.253 46.0292 89.7303 45.6101C88.3226 45.3728 82.1936 45.357 80.8097 45.6101V45.6022Z" fill="#020202"/>
<path d="M13.2237 12.4902H18.1348C18.6409 12.4902 19.8509 13.6764 20.0565 14.1747C20.4203 15.0999 20.357 18.1763 19.9458 19.1015C19.6294 19.8054 18.2929 20.9046 17.5417 20.9046H13.2316V39.2361C13.2316 39.7976 11.9742 41.0313 11.3969 41.2053C10.6219 41.4505 7.40319 41.4505 6.61236 41.2448C5.90852 41.063 4.81717 39.9479 4.81717 39.2361V20.9046C2.05717 21.0944 0.617854 20.5171 0.396421 17.6069C0.127538 14.0165 0.783929 12.1659 4.81717 12.4902V9.38221C4.81717 5.45178 8.72388 0.967755 12.5831 0.319272C14.3309 0.0266645 20.618 -0.242219 22.0494 0.366722C24.0581 1.22082 23.8683 4.10736 23.6548 5.97372C23.5441 6.96226 22.7611 8.10106 21.741 8.26714C19.7006 8.59138 14.924 7.53166 13.6349 9.1766C12.9232 10.0861 13.3423 11.3909 13.2395 12.4823L13.2237 12.4902Z" fill="#020202"/>
<path d="M110.122 16.6978C112.21 13.9299 116.449 11.0196 119.889 13.2419C122.965 15.2348 121.906 21.6247 117.635 21.7196C116.852 21.7354 116.433 21.3874 115.816 21.3163C112.993 20.9841 110.415 23.7283 110.122 26.4092C109.671 30.5374 110.533 35.3456 110.035 39.545C109.632 40.3042 109.086 41.1108 108.177 41.2927C107.457 41.4351 104.151 41.4509 103.456 41.2927C102.649 41.1108 101.676 39.8771 101.708 39.0309L101.747 14.2304C102 13.4396 102.704 12.9809 103.463 12.7436C104.436 12.4431 107.378 12.5064 108.374 12.7278C109.996 13.0916 110.336 15.3059 110.122 16.6899V16.6978Z" fill="#FFBD20"/>
<path d="M31.2688 16.697L33.4673 14.1901C35.8952 11.8492 42.0241 11.691 42.4907 15.7954C42.7517 18.0968 42.4749 20.4614 40.0312 21.3471C38.5998 21.8611 38.2519 21.4024 36.9786 21.3075C33.4594 21.0466 31.3795 23.7038 31.0711 27.0174C30.6994 31.098 31.4191 35.6216 30.9762 39.7498C30.7943 40.3429 29.7188 41.1732 29.1178 41.2998C28.4139 41.4421 25.2743 41.4579 24.5942 41.2998C23.9141 41.1416 22.8306 39.987 22.8465 39.2436C22.7832 32.2922 22.9414 25.3408 22.8623 18.3894C22.8465 16.8314 22.0082 13.2727 24.3965 12.727C25.0608 12.5768 28.8568 12.5768 29.5211 12.727C31.2055 13.1066 31.1423 15.3368 31.2688 16.6891V16.697Z" fill="#020202"/>
<path d="M56.1475 39.0782C62.5155 39.0782 67.6778 33.9159 67.6778 27.5479C67.6778 21.1799 62.5155 16.0176 56.1475 16.0176C49.7795 16.0176 44.6172 21.1799 44.6172 27.5479C44.6172 33.9159 49.7795 39.0782 56.1475 39.0782Z" stroke="#020202" stroke-width="6.86648" stroke-miterlimit="10"/>
</svg>
