<svg width="40" height="41" viewBox="0 0 40 41" fill="none" xmlns="http://www.w3.org/2000/svg">
<path d="M26.6429 19.9445C26.6429 21.5151 26.019 23.0213 24.9085 24.1319C23.7979 25.2425 22.2917 25.8664 20.7211 25.8664C19.1505 25.8664 17.6443 25.2425 16.5337 24.1319C15.4231 23.0213 14.7992 21.5151 14.7992 19.9445V15.207C14.7992 13.6364 15.4231 12.1302 16.5337 11.0196C17.6443 9.90907 19.1505 9.28516 20.7211 9.28516M30.1961 19.9445C30.1961 22.4574 29.1978 24.8674 27.4209 26.6443C25.644 28.4212 23.234 29.4195 20.7211 29.4195M20.7211 29.4195C18.2082 29.4195 15.7982 28.4212 14.0213 26.6443C12.2443 24.8674 11.2461 22.4574 11.2461 19.9445M20.7211 29.4195V32.9726M23.4842 12.419C24.18 12.3308 24.8267 12.0138 25.3226 11.5179C25.8185 11.022 26.1355 10.3753 26.2237 9.67955C26.2521 9.46281 26.425 9.28516 26.6429 9.28516C26.8609 9.28516 27.035 9.46281 27.0622 9.67955C27.1504 10.3753 27.4674 11.022 27.9633 11.5179C28.4592 12.0138 29.1059 12.3308 29.8017 12.419C30.0184 12.4462 30.1961 12.6204 30.1961 12.8383C30.1961 13.0562 30.0184 13.2303 29.8017 13.2575C29.1059 13.3457 28.4592 13.6627 27.9633 14.1586C27.4674 14.6546 27.1504 15.3012 27.0622 15.997C27.0338 16.2137 26.8609 16.3914 26.6429 16.3914C26.425 16.3914 26.2509 16.2137 26.2237 15.997C26.1355 15.3012 25.8185 14.6546 25.3226 14.1586C24.8267 13.6627 24.18 13.3457 23.4842 13.2575C23.2675 13.2291 23.0898 13.0562 23.0898 12.8383C23.0898 12.6204 23.2675 12.4462 23.4842 12.419Z" stroke="black" stroke-width="1.77656" stroke-linecap="round" stroke-linejoin="round"/>
</svg>
