<svg width="40" height="39" viewBox="0 0 40 39" fill="none" xmlns="http://www.w3.org/2000/svg">
<path d="M8.11024 9.55591C8.23299 9.36605 8.42414 9.23403 8.64165 9.1889C8.85915 9.14377 9.0852 9.18921 9.27009 9.31524L11.7806 11.036C11.9582 11.1654 12.0797 11.3607 12.1194 11.5805C12.1591 11.8004 12.1138 12.0275 11.9931 12.2136C11.8725 12.3997 11.6859 12.5302 11.4731 12.5774C11.2604 12.6246 11.038 12.5847 10.8534 12.4663L8.34288 10.7472C8.1583 10.6209 8.03011 10.4244 7.98649 10.201C7.94287 9.97764 7.98738 9.7456 8.11024 9.55591ZM20.5222 9.17256C18.5247 9.17256 16.609 9.98758 15.1966 11.4383C13.7842 12.8891 12.9907 14.8567 12.9907 16.9084V21.0358L11.3772 25.184C11.3264 25.3144 11.3074 25.4556 11.3219 25.5953C11.3365 25.735 11.3842 25.8689 11.4609 25.9853C11.5375 26.1016 11.6407 26.197 11.7615 26.2628C11.8823 26.3287 12.017 26.3632 12.1538 26.3632H17.1748C17.1748 28.268 18.6677 29.8014 20.5222 29.8014C22.3766 29.8014 23.8695 28.268 23.8695 26.3632H28.8905C29.0271 26.3631 29.1616 26.3286 29.2822 26.2628C29.4028 26.197 29.5059 26.1019 29.5825 25.9858C29.6591 25.8696 29.7069 25.736 29.7216 25.5965C29.7364 25.4571 29.7176 25.316 29.6671 25.1857L28.0537 21.0341V16.9084C28.0537 14.8567 27.2602 12.8891 25.8478 11.4383C24.4353 9.98758 22.5197 9.17256 20.5222 9.17256ZM22.1958 26.3632C22.1958 27.319 21.4527 28.0823 20.5222 28.0823C19.5916 28.0823 18.8485 27.319 18.8485 26.3632H22.1958ZM14.6643 16.9084C14.6643 15.3126 15.2815 13.7822 16.3801 12.6539C17.4786 11.5255 18.9686 10.8916 20.5222 10.8916C22.0758 10.8916 23.5657 11.5255 24.6643 12.6539C25.7629 13.7822 26.38 15.3126 26.38 16.9084V21.2026C26.3803 21.3116 26.4007 21.4195 26.4403 21.5206L27.6554 24.6442H13.389L14.6041 21.5206C14.6436 21.4195 14.6641 21.3116 14.6643 21.2026V16.9084ZM31.7743 9.31696C31.9589 9.19854 32.1812 9.1587 32.394 9.20588C32.6068 9.25307 32.7933 9.38356 32.914 9.56968C33.0346 9.75579 33.0799 9.98287 33.0403 10.2027C33.0006 10.4226 32.8791 10.6179 32.7015 10.7472L30.191 12.4663C30.0063 12.5847 29.784 12.6246 29.5712 12.5774C29.3584 12.5302 29.1719 12.3997 29.0512 12.2136C28.9306 12.0275 28.8853 11.8004 28.925 11.5805C28.9646 11.3607 29.0862 11.1654 29.2638 11.036L31.7743 9.31696ZM7.13281 16.9084C7.13281 16.6804 7.22098 16.4618 7.37792 16.3006C7.53485 16.1394 7.74771 16.0488 7.96965 16.0488H10.4802C10.7021 16.0488 10.9149 16.1394 11.0719 16.3006C11.2288 16.4618 11.317 16.6804 11.317 16.9084C11.317 17.1363 11.2288 17.355 11.0719 17.5161C10.9149 17.6773 10.7021 17.7679 10.4802 17.7679H7.96965C7.74771 17.7679 7.53485 17.6773 7.37792 17.5161C7.22098 17.355 7.13281 17.1363 7.13281 16.9084ZM33.0747 16.0488C33.2966 16.0488 33.5095 16.1394 33.6664 16.3006C33.8234 16.4618 33.9115 16.6804 33.9115 16.9084C33.9115 17.1363 33.8234 17.355 33.6664 17.5161C33.5095 17.6773 33.2966 17.7679 33.0747 17.7679H30.5642C30.3423 17.7679 30.1294 17.6773 29.9725 17.5161C29.8155 17.355 29.7274 17.1363 29.7274 16.9084C29.7274 16.6804 29.8155 16.4618 29.9725 16.3006C30.1294 16.1394 30.3423 16.0488 30.5642 16.0488H33.0747Z" fill="black"/>
</svg>
