<svg width="40" height="41" viewBox="0 0 40 41" fill="none" xmlns="http://www.w3.org/2000/svg">
<path d="M17.2339 10.9363C17.1132 10.487 17.1735 10.0084 17.4018 9.60309C17.6302 9.19783 18.0084 8.89831 18.4552 8.76887C19.4113 8.49573 20.415 9.10198 20.6759 10.0624L22.4525 16.7001C22.4689 16.7599 22.4726 16.8224 22.4634 16.8837C22.4541 16.945 22.4322 17.0036 22.3989 17.0559C22.3657 17.1082 22.3219 17.1529 22.2703 17.1873C22.2187 17.2216 22.1605 17.2448 22.0994 17.2553C21.6079 17.3394 21.1398 17.5268 20.7259 17.8049C20.6637 17.846 20.6038 17.8893 20.5438 17.9348C20.5072 17.8704 20.4694 17.806 20.4328 17.7438C20.0533 17.1672 19.5127 16.7147 18.8783 16.4425C18.8173 16.4162 18.7631 16.3763 18.7198 16.3259C18.6765 16.2755 18.6453 16.2159 18.6285 16.1516L17.2339 10.9363ZM15.4406 26.5378C15.5586 26.5622 15.6788 26.5744 15.7993 26.5744C16.2396 26.5741 16.664 26.4102 16.9904 26.1146C17.3167 25.8191 17.5216 25.4129 17.5655 24.9748C17.6093 24.5367 17.4889 24.0979 17.2276 23.7436C16.9663 23.3892 16.5827 23.1445 16.1513 23.0569L13.9761 22.6127C13.5164 22.5232 13.04 22.6188 12.6505 22.8787C12.2609 23.1386 11.9897 23.5418 11.8959 24.0006C11.8021 24.4594 11.8933 24.9367 12.1495 25.3287C12.4058 25.7207 12.8064 25.9956 13.2644 26.0937L15.4406 26.5378ZM13.2644 20.653L17.1106 21.438C17.3406 21.4884 17.5784 21.4927 17.81 21.4504C18.0417 21.4082 18.2626 21.3203 18.46 21.1919C18.6574 21.0635 18.8273 20.8971 18.9598 20.7025C19.0924 20.5078 19.1848 20.2887 19.232 20.058C19.2791 19.8273 19.2798 19.5895 19.2342 19.3585C19.1886 19.1275 19.0975 18.9078 18.9662 18.7123C18.8349 18.5168 18.6661 18.3494 18.4696 18.2197C18.273 18.0901 18.0526 18.0008 17.8212 17.957L13.9761 17.1753C13.5145 17.081 13.0343 17.1738 12.6412 17.4335C12.248 17.6932 11.9742 18.0984 11.8798 18.5599C11.7854 19.0215 11.8783 19.5017 12.1379 19.8949C12.3976 20.288 12.8028 20.5619 13.2644 20.6563V20.653ZM24.5899 17.5262L27.2048 18.0603C27.3151 18.0826 27.4297 18.0622 27.5256 18.0033C27.6214 17.9443 27.6913 17.8512 27.7211 17.7427L29.5443 10.9363C29.6643 10.4818 29.5993 9.99828 29.3635 9.59164C29.1277 9.18501 28.7403 8.88839 28.2863 8.76677C27.8322 8.64514 27.3485 8.70841 26.941 8.94273C26.5335 9.17705 26.2355 9.5633 26.1122 10.0169L24.2468 16.9788C24.2311 17.0376 24.2276 17.0991 24.2366 17.1593C24.2457 17.2196 24.267 17.2773 24.2993 17.329C24.3315 17.3806 24.3741 17.4251 24.4243 17.4596C24.4745 17.4941 24.5313 17.5179 24.591 17.5295L24.5899 17.5262ZM28.736 21.0505C28.5458 20.7379 28.2931 20.4681 27.9937 20.2579C27.6942 20.0477 27.3546 19.9017 26.9961 19.8291L23.0432 19.0263C22.7393 18.9642 22.4244 18.9828 22.1298 19.0802C21.8353 19.1776 21.5714 19.3504 21.3644 19.5815C21.2545 19.6988 21.1634 19.8326 21.0945 19.9779C20.9447 20.2784 20.8832 20.6152 20.917 20.9493C20.9508 21.2834 21.0786 21.601 21.2855 21.8655C21.558 22.2078 21.944 22.4414 22.3737 22.5239L24.0658 22.8692C24.2957 22.916 24.4979 23.051 24.6292 23.2454C24.7604 23.4398 24.8101 23.6779 24.7676 23.9085C24.6183 24.626 24.7272 25.3732 25.0752 26.0182C25.182 26.205 25.2191 26.4237 25.1799 26.6354C25.1406 26.847 25.0276 27.0379 24.8609 27.174C24.7596 27.2534 24.6423 27.3099 24.5171 27.3395C24.3919 27.3691 24.2617 27.3711 24.1356 27.3454C24.0096 27.3198 23.8906 27.267 23.7869 27.1908C23.6832 27.1147 23.5973 27.0169 23.5351 26.9042C23.1207 26.1542 22.9108 25.3083 22.9266 24.4515L21.9773 24.2449C21.5204 24.1529 21.0863 23.9713 20.7 23.7106C20.3137 23.4499 19.9829 23.1152 19.7266 22.726C19.6844 22.6627 19.6455 22.5983 19.6089 22.5328C19.3741 22.712 19.1178 22.8612 18.8461 22.9769C19.1684 23.516 19.342 24.1308 19.3493 24.7588C19.3566 25.3868 19.1973 26.0055 18.8876 26.5519C18.578 27.0983 18.129 27.5529 17.5865 27.8693C17.044 28.1857 16.4273 28.3527 15.7993 28.3532C15.5595 28.3531 15.3203 28.3289 15.0853 28.2811L12.9102 27.8369H12.9035C12.8512 27.8245 12.7966 27.8269 12.7456 27.8438C12.6946 27.8607 12.6493 27.8914 12.6148 27.9325C12.5802 27.9736 12.5578 28.0235 12.55 28.0766C12.5421 28.1297 12.5492 28.184 12.5704 28.2333C13.2636 29.8197 14.4043 31.1695 15.8527 32.1177C17.3012 33.0659 18.9947 33.5712 20.7259 33.5719H20.7936C25.6536 33.5352 29.6087 29.5058 29.6087 24.5891V24.2183C29.6085 23.1042 29.3073 22.0109 28.7371 21.0538L28.736 21.0505Z" fill="black"/>
</svg>
