<svg width="40" height="40" viewBox="0 0 40 40" fill="none" xmlns="http://www.w3.org/2000/svg">
<path d="M5 11.6719H10M5 18.3385H8.33333M15.0333 14.6735L14.0333 24.6735C13.987 25.1369 14.0383 25.6049 14.1839 26.0472C14.3294 26.4896 14.5661 26.8966 14.8786 27.2419C15.1911 27.5872 15.5724 27.8631 15.9981 28.052C16.4238 28.2409 16.8843 28.3385 17.35 28.3385H30.65C31.4766 28.3385 32.2737 28.0313 32.8866 27.4767C33.4995 26.922 33.8844 26.1594 33.9667 25.3369L34.9667 15.3369C35.013 14.8735 34.9617 14.4055 34.8161 13.9632C34.6706 13.5208 34.4339 13.1139 34.1214 12.7686C33.8089 12.4233 33.4276 12.1473 33.0019 11.9584C32.5762 11.7695 32.1157 11.6719 31.65 11.6719H18.35C17.5234 11.6719 16.7263 11.9791 16.1134 12.5337C15.5005 13.0884 15.1156 13.851 15.0333 14.6735Z" stroke="black" stroke-width="2.09032" stroke-linecap="round" stroke-linejoin="round"/>
<path d="M16.332 12.5039L21.302 17.9706C21.7437 18.4565 22.2767 18.8506 22.8708 19.1305C23.4648 19.4104 24.1081 19.5706 24.764 19.6019C25.4199 19.6331 26.0755 19.5349 26.6934 19.3127C27.3114 19.0906 27.8795 18.7489 28.3654 18.3072L33.832 13.3372" stroke="black" stroke-width="2.09032" stroke-linecap="round" stroke-linejoin="round"/>
<rect x="11.8477" y="8.78125" width="25.5144" height="21.2888" transform="rotate(3.64125 11.8477 8.78125)" fill="#F5F5F5"/>
<path fill-rule="evenodd" clip-rule="evenodd" d="M35.3836 15.501C35.3165 15.4971 35.245 15.4955 35.1692 15.4963H32.1781C29.7284 15.4963 27.6328 17.4248 27.6328 19.9385C27.6328 22.4522 29.7295 24.3808 32.1781 24.3808H35.1692C35.245 24.3816 35.3169 24.38 35.3848 24.376C35.8883 24.3457 36.3636 24.1333 36.7221 23.7785C37.0806 23.4237 37.2979 22.9506 37.3335 22.4475C37.3382 22.3764 37.3382 22.2994 37.3382 22.2284V17.6487C37.3382 17.5776 37.3382 17.5006 37.3335 17.4296C37.2979 16.9264 37.0806 16.4534 36.7221 16.0986C36.3636 15.7438 35.8871 15.5314 35.3836 15.501ZM31.9163 21.1231C32.5465 21.1231 33.0571 20.5924 33.0571 19.9385C33.0571 19.2846 32.5465 18.7539 31.9163 18.7539C31.2849 18.7539 30.7744 19.2846 30.7744 19.9385C30.7744 20.5924 31.2849 21.1231 31.9163 21.1231Z" fill="black"/>
<path fill-rule="evenodd" clip-rule="evenodd" d="M35.168 26.1547C35.209 26.153 35.2497 26.1611 35.287 26.1781C35.3243 26.1952 35.357 26.2208 35.3825 26.2529C35.408 26.285 35.4256 26.3226 35.4338 26.3628C35.442 26.4029 35.4407 26.4445 35.4298 26.484C35.1929 27.3274 34.815 28.0477 34.2097 28.6518C33.3224 29.5403 32.1982 29.9324 30.8099 30.1195C29.4594 30.3008 27.7359 30.3008 25.5586 30.3008H23.0567C20.8794 30.3008 19.1546 30.3008 17.8054 30.1195C16.417 29.9324 15.2929 29.5391 14.4056 28.653C13.5195 27.7657 13.1262 26.6415 12.9391 25.2532C12.7578 23.9028 12.7578 22.1792 12.7578 20.0019V19.8692C12.7578 17.6919 12.7578 15.9671 12.9391 14.6167C13.1262 13.2283 13.5195 12.1042 14.4056 11.2169C15.2929 10.3308 16.417 9.93754 17.8054 9.75037C19.1558 9.57031 20.8794 9.57031 23.0567 9.57031H25.5586C27.7359 9.57031 29.4606 9.57031 30.8099 9.75156C32.1982 9.93872 33.3224 10.332 34.2097 11.2181C34.815 11.8246 35.1929 12.5437 35.4298 13.3871C35.4407 13.4266 35.442 13.4681 35.4338 13.5083C35.4256 13.5484 35.408 13.5861 35.3825 13.6182C35.357 13.6503 35.3243 13.6759 35.287 13.6929C35.2497 13.71 35.209 13.718 35.168 13.7164H32.1781C28.8174 13.7164 25.8559 16.3699 25.8559 19.9355C25.8559 23.5012 28.8174 26.1547 32.1781 26.1547H35.168ZM17.2001 14.3087C16.9644 14.3087 16.7384 14.4023 16.5718 14.5689C16.4052 14.7355 16.3116 14.9615 16.3116 15.1971C16.3116 15.4328 16.4052 15.6588 16.5718 15.8254C16.7384 15.992 16.9644 16.0856 17.2001 16.0856H21.9384C22.1741 16.0856 22.4001 15.992 22.5667 15.8254C22.7333 15.6588 22.8269 15.4328 22.8269 15.1971C22.8269 14.9615 22.7333 14.7355 22.5667 14.5689C22.4001 14.4023 22.1741 14.3087 21.9384 14.3087H17.2001Z" fill="black"/>
</svg>
