<svg width="100" height="46" viewBox="0 0 100 46" fill="none" xmlns="http://www.w3.org/2000/svg">
<path d="M78.1087 13.7093C83.7921 21.1375 77.4351 29.746 68.756 29.1559C67.8003 29.0917 66.5045 28.5593 65.6898 28.6683C64.2016 28.8672 63.8488 30.8557 65.3627 31.0931C68.6983 31.6063 72.7203 30.4388 76.088 31.587C82.8555 33.8963 82.971 42.7101 76.2484 45.2503C73.7659 46.1868 66.2158 46.2317 63.682 45.4556C58.7684 43.9545 56.318 38.4122 60.3849 34.5763C59.5831 33.505 58.7299 32.793 58.6016 31.3561C58.3899 28.9634 59.4548 26.9364 61.546 25.8138C59.7691 23.2736 58.8454 20.8873 59.474 17.7441C60.789 11.1498 68.8074 8.43001 74.5421 11.1114C73.1694 7.70515 76.9925 5.05589 79.8919 7.14066C82.6631 9.13563 81.3545 13.2795 78.1151 13.7093H78.1087ZM69.1281 15.5439C63.4383 16.1469 63.6436 23.4853 69.5771 23.6264C76.3703 23.7868 76.0111 14.8126 69.1281 15.5439ZM66.0362 36.9882C64.1696 37.3282 64.1567 39.8235 66.0362 40.1635C67.2165 40.3751 71.8992 40.3559 73.1373 40.1891C75.2734 39.9005 75.3183 37.3346 73.272 36.9946C72.1302 36.8022 67.1588 36.7893 66.0362 36.9946V36.9882Z" fill="#F4F4F4"/>
<path d="M11.2169 10.1312H15.2004C15.6109 10.1312 16.5924 11.0934 16.7591 11.4975C17.0542 12.248 17.0029 14.7433 16.6693 15.4938C16.4128 16.0648 15.3287 16.9564 14.7193 16.9564H11.2233V31.8256C11.2233 32.2811 10.2033 33.2818 9.73507 33.4229C9.10643 33.6217 6.49566 33.6217 5.85419 33.455C5.28329 33.3074 4.39806 32.4029 4.39806 31.8256V16.9564C2.15934 17.1103 0.991865 16.6421 0.812254 14.2815C0.594155 11.3692 1.12657 9.86817 4.39806 10.1312V7.6102C4.39806 4.4221 7.56691 0.784976 10.6973 0.258972C12.1149 0.0216284 17.2146 -0.196471 18.3756 0.29746C20.005 0.990246 19.851 3.33161 19.6778 4.84547C19.588 5.64731 18.953 6.57102 18.1255 6.70573C16.4705 6.96873 12.596 6.10916 11.5504 7.44342C10.9731 8.18111 11.3131 9.23953 11.2297 10.1248L11.2169 10.1312Z" fill="#F4F4F4"/>
<path d="M89.8102 13.543C91.5037 11.2978 94.9419 8.93723 97.7323 10.7398C100.228 12.3563 99.3681 17.5393 95.9042 17.6163C95.2691 17.6291 94.9291 17.3469 94.4288 17.2891C92.1387 17.0197 90.0475 19.2456 89.8102 21.4202C89.4446 24.7687 90.1438 28.6688 89.7396 32.075C89.4125 32.6908 88.9699 33.3451 88.2322 33.4926C87.6485 33.6081 84.9671 33.6209 84.4026 33.4926C83.7483 33.3451 82.9593 32.3444 82.985 31.658L83.0171 11.5416C83.2223 10.9001 83.7932 10.5281 84.409 10.3356C85.1981 10.0919 87.5843 10.1432 88.3926 10.3228C89.7076 10.6179 89.9834 12.414 89.8102 13.5366V13.543Z" fill="#FFBD20"/>
<path d="M25.8471 13.5437L27.6303 11.5102C29.5997 9.61145 34.571 9.48316 34.9495 12.8124C35.1612 14.6791 34.9367 16.597 32.9545 17.3155C31.7935 17.7324 31.5112 17.3604 30.4785 17.2834C27.6239 17.0717 25.9369 19.2271 25.6867 21.9148C25.3852 25.2248 25.9689 28.894 25.6097 32.2425C25.4622 32.7236 24.5898 33.3971 24.1023 33.4997C23.5314 33.6152 20.9847 33.628 20.4331 33.4997C19.8814 33.3714 19.0026 32.4349 19.0154 31.8319C18.9641 26.1934 19.0924 20.5549 19.0283 14.9164C19.0154 13.6527 18.3355 10.7661 20.2727 10.3235C20.8115 10.2016 23.8906 10.2016 24.4294 10.3235C25.7958 10.6314 25.7444 12.4403 25.8471 13.5372V13.5437Z" fill="#F4F4F4"/>
<path d="M46.0323 31.6974C51.1976 31.6974 55.3849 27.5101 55.3849 22.3448C55.3849 17.1795 51.1976 12.9922 46.0323 12.9922C40.867 12.9922 36.6797 17.1795 36.6797 22.3448C36.6797 27.5101 40.867 31.6974 46.0323 31.6974Z" stroke="#F4F4F4" stroke-width="5.56962" stroke-miterlimit="10"/>
</svg>
