<svg width="122" height="17" viewBox="0 0 122 17" fill="none" xmlns="http://www.w3.org/2000/svg">
<path d="M121.812 16.793L119.711 11.4157L116.105 15.9247L121.812 16.793ZM116.994 13.2948L117.261 12.8724C116.195 12.1969 115.045 11.5209 113.815 10.852L113.577 11.2913L113.338 11.7306C114.549 12.3892 115.679 13.054 116.726 13.7172L116.994 13.2948ZM110.032 9.49626L110.246 9.04408C109.082 8.49494 107.861 7.95577 106.585 7.43117L106.395 7.89363L106.205 8.3561C107.466 8.87433 108.671 9.40666 109.819 9.94845L110.032 9.49626ZM102.679 6.46813L102.847 5.99729C101.629 5.56199 100.368 5.14138 99.0649 4.73862L98.9173 5.21632L98.7696 5.69402C100.059 6.09253 101.306 6.50857 102.51 6.93897L102.679 6.46813ZM95.0978 4.12186L95.2257 3.6385C93.9656 3.30501 92.671 2.98886 91.3425 2.69243L91.2336 3.18043L91.1247 3.66842C92.4405 3.96201 93.7224 4.27508 94.9699 4.60522L95.0978 4.12186ZM87.3352 2.38756L87.4257 1.89582C86.14 1.6592 84.8259 1.44135 83.4837 1.24414L83.411 1.73883L83.3383 2.23351C84.6686 2.42897 85.9708 2.64486 87.2447 2.8793L87.3352 2.38756ZM79.468 1.22987L79.5234 0.732953C78.223 0.587954 76.8986 0.462456 75.5506 0.357982L75.512 0.856487L75.4733 1.35499C76.8102 1.4586 78.1234 1.58304 79.4126 1.72679L79.468 1.22987ZM71.5477 0.614585L71.57 0.115085C70.2624 0.0565802 68.9342 0.0178904 67.5857 0.000275343L67.5792 0.500233L67.5727 1.00019C68.9106 1.01767 70.2282 1.05605 71.5253 1.11409L71.5477 0.614585ZM63.6099 0.509643L63.6011 0.00972058C62.2914 0.0328438 60.9639 0.0758352 59.6188 0.139754L59.6425 0.639191L59.6663 1.13863C61.0014 1.07518 62.319 1.03251 63.6188 1.00956L63.6099 0.509643ZM55.6792 0.885428L55.641 0.38689C54.3327 0.48714 53.0087 0.607155 51.6694 0.747838L51.7216 1.2451L51.7738 1.74237C53.1038 1.60266 54.4184 1.4835 55.7174 1.38397L55.6792 0.885428ZM47.7708 1.71518L47.7049 1.21954C46.3998 1.3929 45.0809 1.58585 43.7483 1.79917L43.8274 2.29288L43.9064 2.78659C45.2302 2.57468 46.5403 2.38302 47.8366 2.21083L47.7708 1.71518ZM39.9243 2.96955L39.8326 2.47803C38.5439 2.71849 37.2431 2.97794 35.9304 3.25705L36.0344 3.74612L36.1384 4.23519C37.443 3.9578 38.7356 3.69999 40.016 3.46107L39.9243 2.96955ZM32.1553 4.62067L32.0394 4.13428C30.7566 4.43987 29.4629 4.76419 28.1584 5.10784L28.2858 5.59134L28.4132 6.07484C29.71 5.73321 30.996 5.41081 32.2711 5.10706L32.1553 4.62067ZM24.47 6.64355L24.3316 6.16309C23.0706 6.5263 21.7999 6.90752 20.5197 7.30726L20.6687 7.78454L20.8177 8.26181C22.0909 7.86427 23.3545 7.48517 24.6084 7.12402L24.47 6.64355ZM16.8761 9.01427L16.7168 8.54033C15.4735 8.95833 14.2216 9.39375 12.9612 9.84705L13.1304 10.3175L13.2996 10.788C14.5535 10.3371 15.7988 9.90396 17.0355 9.4882L16.8761 9.01427ZM9.41182 11.6979L9.2331 11.2309C8.00003 11.7029 6.75911 12.1919 5.51043 12.6983L5.69837 13.1617L5.8863 13.625C7.12889 13.121 8.36367 12.6344 9.59054 12.1649L9.41182 11.6979ZM2.04511 14.6844L1.84838 14.2247C1.23441 14.4875 0.618633 14.7545 0.00105391 15.0257L0.20212 15.4835L0.403186 15.9413C1.01789 15.6713 1.63077 15.4056 2.24184 15.1441L2.04511 14.6844Z" fill="black"/>
</svg>
