<svg width="122" height="20" viewBox="0 0 122 20" fill="none" xmlns="http://www.w3.org/2000/svg">
<path d="M121.771 7.02227L116.07 6.11128L118.132 11.5041L121.771 7.02227ZM0.335938 0.367188L-0.00348077 0.734332C0.466378 1.16871 0.970287 1.60991 1.50782 2.05599L1.82712 1.67123L2.14643 1.28646C1.62186 0.851131 1.13142 0.421661 0.675356 4.27542e-05L0.335938 0.367188ZM4.99622 4.07382L4.71036 4.48405C5.7462 5.20585 6.8646 5.93171 8.06412 6.65398L8.32204 6.22563L8.57996 5.79729C7.39869 5.08601 6.29898 4.3722 5.28207 3.6636L4.99622 4.07382ZM11.7838 8.17478L11.5508 8.61714C12.6892 9.21692 13.8849 9.80923 15.1371 10.3895L15.3473 9.93579L15.5575 9.48213C14.3206 8.90895 13.1401 8.32416 12.0169 7.73241L11.7838 8.17478ZM18.9973 11.5233L18.8085 11.9863C20.0063 12.4747 21.2475 12.9504 22.5315 13.41L22.7 12.9393L22.8685 12.4685C21.5981 12.0137 20.3704 11.5433 19.1861 11.0603L18.9973 11.5233ZM26.4677 14.2006L26.3186 14.6779C27.5629 15.0665 28.8424 15.4392 30.1565 15.7938L30.2868 15.311L30.417 14.8283C29.1154 14.4771 27.8485 14.108 26.6167 13.7234L26.4677 14.2006ZM34.1465 16.2745L34.0345 16.7618C35.3086 17.0547 36.6118 17.3302 37.944 17.5862L38.0384 17.0952L38.1328 16.6042C36.8124 16.3504 35.5209 16.0775 34.2586 15.7873L34.1465 16.2745ZM41.9552 17.777L41.878 18.271C43.1708 18.473 44.4884 18.6567 45.8305 18.8203L45.891 18.324L45.9515 17.8276C44.6205 17.6654 43.3141 17.4833 42.0324 17.283L41.9552 17.777ZM49.8408 18.7399L49.7965 19.238C51.1004 19.3539 52.4256 19.451 53.7719 19.5279L53.8004 19.0287L53.8289 18.5295C52.4931 18.4532 51.1784 18.3569 49.8851 18.2419L49.8408 18.7399ZM57.7663 19.1938L57.7531 19.6936C59.0626 19.7281 60.3907 19.7435 61.7373 19.7388L61.7355 19.2388L61.7338 18.7388C60.3971 18.7435 59.079 18.7282 57.7795 18.694L57.7663 19.1938ZM65.7059 19.1671L65.7221 19.6668C67.0336 19.6242 68.3615 19.5625 69.7058 19.4808L69.6755 18.9817L69.6451 18.4827C68.3103 18.5637 66.9917 18.625 65.6896 18.6673L65.7059 19.1671ZM73.6431 18.6858L73.6871 19.1839C74.9986 19.0681 76.3247 18.9333 77.6654 18.7788L77.6081 18.2821L77.5509 17.7853C76.219 17.9388 74.9017 18.0727 73.5991 18.1878L73.6431 18.6858ZM81.5372 17.7776L81.6072 18.2727C82.9052 18.0892 84.2161 17.8872 85.5398 17.666L85.4575 17.1729L85.3751 16.6797C84.0595 16.8994 82.7569 17.1002 81.4672 17.2826L81.5372 17.7776ZM89.3713 16.4697L89.4657 16.9607C90.7607 16.7118 92.0674 16.4447 93.3857 16.1587L93.2797 15.6701L93.1737 15.1815C91.8631 15.4658 90.5641 15.7313 89.2769 15.9787L89.3713 16.4697ZM97.1381 14.7867L97.2552 15.2728C98.531 14.9654 99.8172 14.6404 101.114 14.2973L100.986 13.8139L100.858 13.3306C99.5685 13.6718 98.2895 13.9949 97.0209 14.3006L97.1381 14.7867ZM104.829 12.7521L104.967 13.2326C106.228 12.8697 107.497 12.4897 108.777 12.0923L108.628 11.6148L108.48 11.1373C107.207 11.5327 105.944 11.9107 104.69 12.2717L104.829 12.7521ZM112.404 10.3993L112.562 10.8737C113.815 10.4564 115.076 10.0224 116.346 9.57135L116.178 9.1002L116.011 8.62904C114.747 9.07794 113.492 9.50976 112.246 9.92493L112.404 10.3993Z" fill="black"/>
</svg>
